General
Complete name : Hisss (2010 )1CDrip - DvDScR - XviD - Team SRG.avi
Format : AVI
Format/Info : Audio Video Interleave
File size : 698 MiB
Duration : 1h 26mn
Overall bit rate : 1 130 Kbps
Writing application : VirtualDubMod 1.5.10.2 (build 2540/release)
Writing library : VirtualDubMod build 2540/release

Video
ID : 0
Format : MPEG-4 Visual
Format profile : Advanced Simple@L5
Format settings, BVOP : Yes
Format settings, QPel : No
Format settings, GMC : No warppoints
Format settings, Matrix : Custom
Codec ID : XVID
Codec ID/Hint : XviD
Duration : 1h 26mn
Bit rate : 1 041 Kbps
Width : 688 pixels
Height : 320 pixels
Display aspect ratio : 2.2:1
Frame rate : 25.000 fps
Color space : YUV
Chroma subsampling : 4:2:0
Bit depth : 8 bits
Scan type : Progressive
Bits/(Pixel*Frame) : 0.189
Stream size : 642 MiB (92%)
Writing library : XviD 1.2.1 (UTC 2008-12-04)

Audio
ID : 1
Format : MPEG Audio
Format version : Version 2
Format profile : Layer 3
Mode : Joint stereo
Mode extension : Intensity Stereo + MS Stereo
Codec ID : 55
Codec ID/Hint : MP3
Duration : 1h 26mn
Bit rate mode : Constant
Bit rate : 80.0 Kbps
Channel(s) : 2 channels
Sampling rate : 24.0 KHz
Stream size : 49.4 MiB (7%)
Alignment : Aligned on interleaves
Interleave, duration : 40 ms (1.00 video frame)
Interleave, preload duration : 504 ms

